PathFileType	3	(X/Y/Z)	D:\minhoCalibration\240510\subject2_KPNP\preferred\preferred06.trc
DataRate	CameraRate	NumFrames	NumMarkers	Units	OrigDataRate	OrigDataStartFrame	OrigNumFrames
200.0	200.0	30	10	mm	200.0	410	188	
Frame#	Time	Left_Ankle_Outer1			Left_Ankle_Inner1			Left_Knee_Outer1			Left_Knee_Inner1			Left_Wrist1			Right_Wrist1			Right_Knee_Inner1			Right_Knee_Outer1			Right_Ankle_Inner1			Right_Ankle_Outer1			
		X1	Y1	Z1	X2	Y2	Z2	X3	Y3	Z3	X4	Y4	Z4	X5	Y5	Z5	X6	Y6	Z6	X7	Y7	Z7	X8	Y8	Z8	X9	Y9	Z9	X10	Y10	Z10	
410	2.04	-524.05505	87.688583	-753.29163	-534.37274	91.030533	-696.94775	-376.4054	507.21234	-749.68628	-436.61835	494.67151	-673.65771	-326.52744	982.16357	-792.88947	-618.94537	1059.1671	-628.3255	-613.06458	581.40045	-412.33432	-696.19147	627.31964	-417.91263	-703.00403	224.77486	-601.50757	-796.22394	252.07079	-612.09509
411	2.045	-524.07819	87.588051	-753.35565	-534.56677	90.014061	-698.64166	-376.6308	507.37369	-749.53687	-436.72955	494.67496	-673.59149	-326.47754	982.48907	-791.01215	-621.99255	1056.4698	-630.50964	-618.50824	575.6944	-421.07809	-701.57336	620.92798	-429.40665	-703.99359	220.05371	-613.59845	-797.29871	247.80901	-626.79022
412	2.05	-523.82092	87.014267	-752.89044	-534.65216	89.870705	-698.73022	-376.97192	507.54327	-749.37616	-436.74078	494.75296	-673.53131	-326.6297	983.06348	-788.96552	-625.31915	1053.9669	-633.02484	-624.07812	570.28534	-430.21649	-707.17468	615.42804	-439.34146	-704.8454	215.507	-625.2489	-796.99841	243.66714	-642.0473
413	2.055	-523.89966	87.27269	-753.62146	-534.46429	90.619034	-697.8252	-377.24234	507.8342	-749.1394	-436.7883	494.85626	-673.45605	-326.71674	983.63397	-787.17096	-627.99915	1051.4653	-635.22101	-628.8584	565.13177	-439.70596	-712.52368	610.90491	-448.38715	-705.98724	211.37956	-636.92242	-798.6123	239.59631	-655.14172
414	2.06	-523.75903	87.154854	-753.9444	-534.66699	90.523056	-698.21204	-377.5752	508.16101	-748.76282	-437.04852	494.98938	-673.37677	-326.75598	984.41681	-785.35284	-631.03613	1049.0564	-637.73157	-633.70813	560.38361	-449.26398	-717.55676	605.87439	-458.70193	-707.03668	207.3385	-648.75714	-799.3894	235.75626	-669.06592
415	2.065	-523.64905	87.055237	-754.23315	-534.55646	90.601189	-698.37152	-377.86234	508.42471	-748.33344	-437.5264	495.10114	-673.3078	-328.04181	985.07733	-782.4491	-634.21991	1046.7896	-640.35248	-638.83777	555.50964	-458.34363	-721.81299	600.29895	-470.85577	-708.18945	203.6218	-660.57599	-800.18591	232.26149	-682.50177
416	2.07	-523.4989	86.966301	-754.61707	-534.79382	89.629906	-700.05933	-378.11911	508.68655	-747.81757	-438.39874	494.9982	-673.35626	-328.68579	985.78412	-780.21936	-637.34882	1044.5885	-643.10425	-643.54016	551.15247	-467.7887	-726.64661	595.70227	-481.13184	-709.43616	199.74728	-671.77423	-800.91663	228.91743	-695.75714
417	2.075	-523.33417	86.909912	-754.90173	-534.90503	89.692596	-700.23389	-378.543	508.7793	-747.16278	-439.40665	495.03622	-673.41815	-329.2811	986.75781	-778.1626	-640.45911	1042.4788	-645.91101	-647.98169	547.06421	-477.17078	-732.29614	592.80566	-487.92114	-710.59302	196.61263	-684.90137	-801.62939	225.67018	-708.94983
418	2.08	-523.24738	86.842796	-755.25104	-534.81677	90.161835	-699.75934	-378.71359	508.88974	-746.41595	-440.54129	495.05551	-673.41193	-329.89941	987.6192	-776.02576	-643.76758	1040.584	-648.89044	-652.24359	543.34131	-486.50748	-736.50439	588.67126	-498.67422	-711.3584	193.03743	-694.86066	-802.15094	222.66251	-721.66217
419	2.085	-523.1571	86.73629	-755.5318	-534.9964	90.280052	-699.91296	-379.18561	508.90933	-745.46967	-441.85358	495.11322	-673.41217	-330.68289	988.35626	-773.87927	-646.99457	1038.7045	-651.94	-656.11432	539.75201	-495.9823	-738.87793	583.47888	-513.11249	-712.32867	189.8681	-705.85394	-802.80005	219.71909	-734.19238
420	2.09	-523.12628	86.662819	-755.75836	-535.21924	90.383377	-699.78821	-379.63	508.95703	-744.5202	-443.39508	495.138	-673.40253	-331.41119	989.20917	-771.77032	-649.86853	1036.707	-654.96149	-660.23712	536.72876	-505.37979	-743.65002	581.43542	-520.66711	-713.46191	186.7271	-716.69	-803.2301	216.8028	-746.44159
421	2.095	-523.11066	86.538582	-755.8905	-535.10223	90.155838	-700.26636	-380.19183	508.94623	-743.51306	-444.96445	495.08539	-673.38715	-332.28732	990.03302	-769.71381	-653.05414	1035.1007	-658.0849	-663.74524	533.81897	-515.00507	-746.26788	576.41748	-534.92004	-714.22131	183.69116	-727.31451	-803.68225	214.04739	-758.40039
422	2.1	-523.0329	85.992058	-755.50677	-535.32196	90.062851	-700.19983	-380.78903	509.01407	-742.54846	-446.73785	495.64551	-673.34052	-333.27203	990.78418	-767.58698	-655.95453	1033.5448	-661.20605	-667.84235	530.80463	-524.07306	-749.18359	573.15326	-545.94165	-715.06732	180.83363	-737.52655	-803.99811	211.23628	-770.146
423	2.105	-523.15283	85.872314	-755.60791	-534.93146	88.496269	-703.06738	-381.58746	509.04651	-741.67059	-448.34308	495.75565	-673.28632	-334.38715	991.49487	-765.49707	-658.65106	1032.1195	-664.31165	-671.43781	528.1604	-533.38239	-754.01886	572.12781	-552.08917	-715.90387	177.80183	-747.63831	-804.19672	208.48717	-781.45935
424	2.11	-523.06592	85.325676	-755.02856	-535.23181	88.508865	-703.19739	-382.4791	509.14639	-740.9339	-449.98911	495.8974	-673.29102	-335.25543	992.32861	-763.66016	-661.25018	1030.7079	-667.43164	-675.02832	525.68884	-542.71155	-755.37897	567.35999	-567.49463	-716.42719	175.16823	-757.48224	-804.32928	205.77547	-792.52777
425	2.115	-523.59802	85.810692	-756.03943	-535.89349	88.720139	-701.47736	-383.44403	509.30869	-740.36316	-451.50098	495.95218	-673.30182	-336.42224	993.06238	-761.81213	-663.70807	1029.2633	-670.51819	-678.45355	523.35931	-551.93201	-758.0871	564.80157	-578.35406	-717.12543	172.28293	-766.95062	-804.51752	203.07877	-803.25433
426	2.12	-523.67175	85.170944	-755.49713	-535.34357	87.419388	-703.51166	-384.67401	509.43262	-739.99518	-453.05548	496.0574	-673.27612	-337.66595	993.67511	-760.01703	-666.27704	1027.8702	-673.62219	-681.44678	521.0705	-561.49133	-761.23804	562.22095	-588.36224	-717.65942	169.61568	-776.25146	-804.52917	200.40552	-813.75281
427	2.125	-524.04639	85.383919	-756.00214	-536.38745	88.208298	-701.49127	-385.88425	509.46182	-739.6131	-454.45981	495.99112	-673.30438	-338.80191	994.32709	-758.42828	-668.78119	1026.521	-676.68335	-683.33771	517.45959	-571.87848	-763.75464	560.15271	-598.63818	-718.04144	167.03702	-785.04498	-804.45648	197.79836	-823.87231
428	2.13	-524.0813	84.743561	-755.43408	-536.6311	87.938667	-701.50525	-386.80939	509.60684	-739.3194	-455.88867	495.91794	-673.43597	-340.01443	994.95612	-757.00757	-671.1969	1025.1719	-679.74451	-687.802	516.15747	-579.77618	-766.26489	557.98828	-609.13623	-718.35248	164.39909	-793.76428	-804.20709	195.1362	-833.69171
429	2.135	-524.32135	84.590309	-755.4823	-536.9328	87.802841	-701.48627	-388.03766	509.59204	-739.06812	-457.31778	495.77597	-673.4317	-341.41858	995.42572	-755.60706	-673.58191	1023.8311	-682.72864	-690.73785	514.06042	-589.24628	-768.64886	556.08167	-619.5564	-718.61548	162.28835	-802.23724	-803.93469	192.63	-843.26013
430	2.14	-524.49445	84.415344	-755.52014	-536.60358	86.53537	-703.32617	-389.1156	509.57745	-738.74939	-458.80911	495.65906	-673.53864	-342.85492	995.89642	-754.40582	-675.94629	1022.4503	-685.69678	-693.26605	512.32642	-598.8924	-770.43719	554.37799	-630.69641	-718.73328	159.79849	-809.84125	-803.4502	190.12886	-852.61249
431	2.145	-524.62085	84.310898	-755.64447	-536.60052	87.212013	-702.68164	-389.85645	509.62103	-738.3678	-460.29684	495.55603	-673.62524	-344.69998	996.22034	-753.11627	-678.27039	1021.1271	-688.68445	-696.63556	510.32483	-607.29089	-773.02722	552.44824	-640.42505	-718.81793	157.46568	-817.52936	-802.90692	187.69991	-861.59174
432	2.15	-524.69037	84.209732	-755.69598	-537.49969	87.581062	-701.45392	-390.93076	509.56827	-737.98828	-461.75986	495.42761	-673.95874	-346.81882	996.37469	-752.01025	-680.65399	1019.7584	-691.59735	-698.71332	508.62579	-616.09265	-775.17352	550.60535	-650.56891	-718.83484	155.16127	-824.85638	-802.30054	185.30095	-870.30579
433	2.155	-524.67352	84.133698	-755.84314	-537.60284	88.487885	-700.42633	-391.68976	509.57446	-737.63672	-463.27582	495.36322	-674.20154	-348.07111	996.98041	-751.14142	-683.01514	1018.4124	-694.27838	-701.55096	507.57611	-624.60132	-776.61011	549.46985	-660.96417	-718.78461	152.8774	-831.95874	-801.67383	183.04411	-878.81659
434	2.16	-524.80585	84.412819	-756.56903	-537.93469	88.540115	-700.33075	-392.32074	509.67819	-737.2854	-464.74097	495.33566	-674.49109	-349.79678	997.34418	-750.32135	-685.39441	1016.9664	-697.15717	-703.55121	505.77145	-633.35547	-777.92114	548.13092	-671.0788	-718.91107	150.57047	-838.70605	-800.94672	180.78207	-887.01398
435	2.165	-524.79272	84.338516	-756.75983	-537.47156	88.070122	-701.68665	-393.05157	509.77594	-736.96405	-466.12573	495.30273	-674.83173	-351.7811	997.73389	-749.4585	-687.80273	1015.5448	-699.92426	-707.14197	505.95404	-641.18414	-779.19348	546.72559	-681.10919	-719.10657	148.38246	-845.1308	-800.22534	178.6436	-894.95007
436	2.17	-524.74841	84.271446	-757.08917	-537.73602	87.837608	-702.05554	-393.79144	509.81622	-736.68304	-467.40222	495.35052	-675.11462	-353.80045	998.12	-748.63733	-690.25153	1014.1438	-702.4223	-708.46179	503.75552	-649.8924	-780.26544	545.40094	-690.38721	-719.07166	146.04376	-851.39172	-799.45245	176.54666	-902.72906
437	2.175	-524.63739	84.174294	-757.31671	-537.72266	88.024017	-702.26941	-394.2287	509.93442	-736.30365	-468.59961	495.37796	-675.49066	-355.91644	998.43347	-747.83765	-692.8175	1012.7616	-705.17761	-710.59766	502.85477	-657.75769	-780.93451	543.97144	-699.91272	-719.17981	144.01717	-857.55298	-798.78485	174.61868	-910.29779
438	2.18	-524.54987	84.136116	-757.73071	-538.08514	87.623314	-702.72601	-394.7648	510.09924	-735.974	-469.50549	495.08313	-676.98877	-358.05585	998.84229	-747.11804	-695.39502	1011.294	-708.26923	-711.14838	501.14108	-665.67004	-781.46729	542.67584	-708.64233	-719.19171	142.11459	-863.6283	-798.06012	173.03859	-917.74542
439	2.185	-524.3598	84.007988	-758.04395	-537.58435	86.673637	-704.64075	-395.35275	510.20593	-735.52271	-470.55978	495.05063	-677.33344	-360.24985	999.2699	-746.44403	-698.08868	1009.9227	-710.76263	-708.36615	497.06467	-679.37891	-781.78168	541.54767	-716.89941	-719.26331	140.27774	-869.45221	-797.37701	171.31548	-924.97131
